<svg width="15" height="15" viewBox="0 0 15 15" fill="none" xmlns="http://www.w3.org/2000/svg">
<path d="M6.01151 0.109683C5.50477 -0.0542157 4.95622 -0.0322359 4.46422 0.171681C3.97222 0.375597 3.56895 0.748113 3.32673 1.22243L2.7248 2.3994C2.65327 2.53952 2.53932 2.65348 2.39919 2.72501L1.22147 3.32694C0.747158 3.56916 0.374643 3.97242 0.170727 4.46442C-0.0331901 4.95642 -0.0551701 5.50498 0.108728 6.01171L0.516486 7.27009C0.564893 7.41961 0.564893 7.5806 0.516486 7.73012L0.109475 8.98849C-0.0544231 9.49523 -0.0324433 10.0438 0.171473 10.5358C0.37539 11.0278 0.747905 11.4311 1.22222 11.6733L2.39919 12.2752C2.53932 12.3467 2.65327 12.4607 2.7248 12.6008L3.32673 13.7785C3.56895 14.2528 3.97222 14.6254 4.46422 14.8293C4.95622 15.0332 5.50477 15.0552 6.01151 14.8913L7.26988 14.4835C7.4194 14.4351 7.58039 14.4351 7.72991 14.4835L8.98829 14.8905C9.49494 15.0545 10.0434 15.0326 10.5354 14.8288C11.0274 14.6251 11.4307 14.2527 11.6731 13.7785L12.275 12.6008C12.3465 12.4607 12.4605 12.3467 12.6006 12.2752L13.7783 11.674C14.2528 11.4318 14.6254 11.0284 14.8294 10.5362C15.0333 10.0441 15.0552 9.49533 14.8911 8.98849L14.4833 7.73012C14.4349 7.5806 14.4349 7.41961 14.4833 7.27009L14.8903 6.01171C15.0543 5.50506 15.0324 4.95658 14.8286 4.46459C14.6249 3.9726 14.2525 3.56928 13.7783 3.32694L12.6006 2.72501C12.4605 2.65348 12.3465 2.53952 12.275 2.3994L11.6738 1.22168C11.4316 0.747202 11.0282 0.37457 10.536 0.170642C10.0438 -0.0332858 9.49512 -0.055163 8.98829 0.108936L7.72991 0.516693C7.58039 0.5651 7.4194 0.5651 7.26988 0.516693L6.01151 0.109683ZM3.58662 7.31863L4.64261 6.26264L6.75458 8.37536L10.9793 4.15067L12.036 5.20665L6.75458 10.4866L3.58662 7.31863Z" fill="#6EBB2D"/>
</svg>
