<svg width="50" height="50" viewBox="0 0 50 50" fill="none" xmlns="http://www.w3.org/2000/svg">
<rect width="50" height="50" rx="25" fill="#6EBB2D"/>
<path d="M25.175 13.0156C31.8645 13.0156 37.2844 18.4355 37.2844 25.125C37.2844 31.8145 31.8645 37.2344 25.175 37.2344C18.4855 37.2344 13.0656 31.8145 13.0656 25.125C13.0656 18.4355 18.4855 13.0156 25.175 13.0156ZM29.6672 28.2988C29.7648 28.2012 29.8625 28.0059 29.8625 27.8105C29.8625 27.5664 29.716 27.3711 29.5695 27.2246L26.7375 25.125V18.0938C26.7375 17.7031 26.3469 17.3125 25.9563 17.3125H24.3938C23.9543 17.3125 23.6125 17.7031 23.6125 18.0938V25.7109C23.6125 26.3457 23.8566 26.8828 24.3449 27.2246L27.6164 29.666C27.7141 29.7637 27.9094 29.8613 28.0559 29.8613C28.3488 29.8613 28.5441 29.7148 28.6906 29.5195L29.6672 28.2988Z" fill="white"/>
</svg>
