<svg width="50" height="50" viewBox="0 0 50 50" fill="none" xmlns="http://www.w3.org/2000/svg">
<rect width="50" height="50" rx="25" fill="#6EBB2D"/>
<path d="M39.1062 32.3027C39.5457 33.3281 38.8133 34.5 37.739 34.5H28.1199L27.6316 29.7637C27.5828 29.373 27.241 29.0312 26.8504 29.0312H23.4812C23.0906 29.0312 22.7488 29.373 22.7 29.7637L22.2117 34.5H12.5926C11.5183 34.5 10.7859 33.3281 11.2254 32.3027L18.0613 16.6777C18.3054 16.1406 18.8426 15.75 19.4285 15.75H24.1648L24.0672 16.9219C24.0183 17.1172 24.2136 17.3125 24.4578 17.3125H25.8738C26.1179 17.3125 26.3133 17.1172 26.2644 16.9219L26.1668 15.75H30.9031C31.489 15.75 32.0261 16.1406 32.2703 16.6777L39.1062 32.3027ZM23.823 19.2656L23.5789 21.3652C23.5789 21.707 23.823 22 24.1648 22H26.1668C26.5086 22 26.7527 21.707 26.7527 21.3652L26.5086 19.2656C26.5086 19.0703 26.3133 18.875 26.1179 18.875H24.2136V18.9238C24.0183 18.9238 23.823 19.0703 23.823 19.2656ZM26.5086 27.4688C26.9969 27.4688 27.3386 27.0781 27.2898 26.6387L27.0457 24.2949C26.9969 23.9043 26.6551 23.5625 26.2644 23.5625H24.0672C23.6765 23.5625 23.3347 23.9043 23.2859 24.2949L23.0418 26.6387C22.9929 27.0781 23.3347 27.4688 23.823 27.4688H26.5086Z" fill="white"/>
</svg>
