<svg width="50" height="50" viewBox="0 0 50 50" fill="none" xmlns="http://www.w3.org/2000/svg">
<rect width="50" height="50" rx="25" fill="#6EBB2D"/>
<path d="M21.3807 33.5682L16.4337 28.6202C15.5287 27.7162 15.0767 27.2642 15.0127 26.7122C14.9984 26.5889 14.9984 26.4644 15.0127 26.3412C15.0767 25.7892 15.5287 25.3362 16.4327 24.4322C17.3377 23.5282 17.7897 23.0762 18.3417 23.0122C18.4657 22.9969 18.5891 22.9969 18.7117 23.0122C19.2647 23.0762 19.7167 23.5282 20.6217 24.4322L21.3547 25.1662L25.1667 21.3532L24.4337 20.6202C23.5287 19.7162 23.0767 19.2642 23.0127 18.7122C22.9984 18.5889 22.9984 18.4644 23.0127 18.3412C23.0767 17.7892 23.5287 17.3372 24.4327 16.4322C25.3377 15.5282 25.7897 15.0762 26.3417 15.0122C26.4647 14.9979 26.5888 14.9979 26.7117 15.0122C27.2647 15.0762 27.7167 15.5282 28.6217 16.4322L33.5697 21.3822C34.4747 22.2862 34.9267 22.7382 34.9907 23.2902C35.0061 23.4142 35.0061 23.5375 34.9907 23.6602C34.9267 24.2132 34.4747 24.6652 33.5707 25.5702C32.6657 26.4732 32.2137 26.9252 31.6617 26.9902C31.5388 27.0045 31.4147 27.0045 31.2917 26.9902C30.7387 26.9252 30.2867 26.4732 29.3817 25.5702L28.2707 24.4572L24.4587 28.2702L25.5697 29.3822C26.4747 30.2862 26.9267 30.7382 26.9907 31.2902C27.0061 31.4142 27.0061 31.5375 26.9907 31.6602C26.9267 32.2132 26.4747 32.6652 25.5707 33.5702C24.6657 34.4732 24.2137 34.9252 23.6617 34.9902C23.5388 35.0045 23.4147 35.0045 23.2917 34.9902C22.7387 34.9252 22.2867 34.4732 21.3817 33.5702" fill="white"/>
<path fill-rule="evenodd" clip-rule="evenodd" d="M30.4884 14.9679C30.6291 14.8274 30.8197 14.7485 31.0184 14.7485C31.2172 14.7485 31.4078 14.8274 31.5484 14.9679L34.6524 18.0719C34.7849 18.2141 34.857 18.4021 34.8536 18.5964C34.8502 18.7907 34.7715 18.9761 34.6341 19.1135C34.4966 19.2509 34.3113 19.3296 34.117 19.3331C33.9227 19.3365 33.7346 19.2644 33.5924 19.1319L30.4874 16.0279C30.347 15.8872 30.2681 15.6966 30.2681 15.4979C30.2681 15.2991 30.348 15.1085 30.4884 14.9679ZM14.9654 30.4879C15.1061 30.3474 15.2967 30.2685 15.4954 30.2685C15.6942 30.2685 15.8848 30.3474 16.0254 30.4879L19.1304 33.5919C19.2629 33.7341 19.335 33.9221 19.3316 34.1164C19.3282 34.3107 19.2495 34.4961 19.1121 34.6335C18.9746 34.7709 18.7893 34.8496 18.595 34.8531C18.4007 34.8565 18.2126 34.7844 18.0704 34.6519L14.9654 31.5479C14.825 31.4073 14.7461 31.2166 14.7461 31.0179C14.7461 30.8191 14.825 30.6285 14.9654 30.4879Z" fill="white"/>
</svg>
