<svg width="20" height="20" viewBox="0 0 20 20" fill="none" xmlns="http://www.w3.org/2000/svg">
<path fill-rule="evenodd" clip-rule="evenodd" d="M10 1.25C8.3424 1.25 6.75269 1.90848 5.58058 3.08058C4.40848 4.25268 3.75 5.8424 3.75 7.5C3.75 8.925 4.45 10.61 5.47125 12.4175C6.505 14.2462 7.93 16.3012 9.49125 18.4887L10 19.2012L10.5087 18.4887C12.0712 16.3012 13.495 14.2462 14.5288 12.4175C15.55 10.61 16.25 8.925 16.25 7.5C16.25 6.67924 16.0883 5.86651 15.7742 5.10823C15.4602 4.34994 14.9998 3.66095 14.4194 3.08058C13.8391 2.50022 13.1501 2.03984 12.3918 1.72575C11.6335 1.41166 10.8208 1.25 10 1.25ZM10 4.375C9.1712 4.375 8.37634 4.70424 7.79029 5.29029C7.20424 5.87634 6.875 6.6712 6.875 7.5C6.875 8.3288 7.20424 9.12366 7.79029 9.70971C8.37634 10.2958 9.1712 10.625 10 10.625C10.8288 10.625 11.6237 10.2958 12.2097 9.70971C12.7958 9.12366 13.125 8.3288 13.125 7.5C13.125 6.6712 12.7958 5.87634 12.2097 5.29029C11.6237 4.70424 10.8288 4.375 10 4.375Z" fill="#6EBB2D"/>
</svg>
