<svg width="50" height="50" viewBox="0 0 50 50" fill="none" xmlns="http://www.w3.org/2000/svg">
<rect width="50" height="50" rx="25" fill="#6EBB2D"/>
<path d="M21.635 16.1406C21.635 14.2363 23.1975 12.625 25.1506 12.625C27.0549 12.625 28.6662 14.2363 28.6662 16.1406C28.6662 18.0938 27.0549 19.6562 25.1506 19.6562C23.1975 19.6562 21.635 18.0938 21.635 16.1406ZM34.0373 16.2383C34.6721 16.8242 34.6721 17.8496 34.0373 18.4355L29.4475 23.0742V36.0625C29.4475 36.9414 28.715 37.625 27.885 37.625H27.1037C26.2248 37.625 25.5412 36.9414 25.5412 36.0625V30.5938H24.76V36.0625C24.76 36.9414 24.0275 37.625 23.1975 37.625H22.4162C21.5373 37.625 20.8537 36.9414 20.8537 36.0625V23.0742L16.215 18.4355C15.5803 17.8496 15.5803 16.8242 16.215 16.2383C16.801 15.6035 17.8264 15.6035 18.4123 16.2383L22.6604 20.4375H27.592L31.84 16.2383C32.426 15.6035 33.4514 15.6035 34.0373 16.2383Z" fill="white"/>
</svg>
