<svg width="15" height="15" viewBox="0 0 15 15" fill="none" xmlns="http://www.w3.org/2000/svg">
<path d="M12.1875 9.375C13.7109 9.375 15 10.6641 15 12.1875C15 13.7402 13.7109 15 12.1875 15H4.04297C4.42383 14.5312 4.95117 13.8574 5.41992 13.125H12.1875C12.6855 13.125 13.125 12.7148 13.125 12.1875C13.125 11.6895 12.6855 11.25 12.1875 11.25H9.375C7.82227 11.25 6.5625 9.99023 6.5625 8.4375C6.5625 6.91406 7.82227 5.625 9.375 5.625H10.6934C10.0195 4.6875 9.375 3.57422 9.375 2.8125C9.375 1.25977 10.6348 0 12.1875 0C13.7402 0 15 1.25977 15 2.8125C15 4.36523 12.1875 7.5 12.1875 7.5H9.375C8.84766 7.5 8.4375 7.93945 8.4375 8.4375C8.4375 8.96484 8.84766 9.375 9.375 9.375H12.1875ZM12.1875 1.875C11.6602 1.875 11.25 2.31445 11.25 2.8125C11.25 3.33984 11.6602 3.75 12.1875 3.75C12.6855 3.75 13.125 3.33984 13.125 2.8125C13.125 2.31445 12.6855 1.875 12.1875 1.875ZM2.8125 7.5C4.36523 7.5 5.625 8.75977 5.625 10.3125C5.625 11.8652 2.8125 15 2.8125 15C2.8125 15 0 11.8652 0 10.3125C0 8.75977 1.25977 7.5 2.8125 7.5ZM2.8125 11.25C3.31055 11.25 3.75 10.8398 3.75 10.3125C3.75 9.81445 3.31055 9.375 2.8125 9.375C2.28516 9.375 1.875 9.81445 1.875 10.3125C1.875 10.8398 2.28516 11.25 2.8125 11.25Z" fill="#6EBB2D"/>
</svg>
