<svg width="205" height="60" viewBox="0 0 205 60" fill="none" xmlns="http://www.w3.org/2000/svg">
<path fill-rule="evenodd" clip-rule="evenodd" d="M59.322 11.8646C56.6542 13.847 54.9277 16.9536 54.9277 20.4294V31.2472H54.9334L60.1246 26.2515H60.1189V20.4291C60.1189 17.2364 62.8518 14.6065 66.1695 14.6065H67.1108C70.4282 14.6065 73.1613 17.2364 73.1613 20.4291V26.2515H73.1557L78.3469 31.2472H78.3525V20.4294C78.3525 16.9536 76.6261 13.847 73.958 11.8646C73.1635 11.2738 72.2851 10.783 71.3441 10.412C70.036 9.89618 68.6064 9.61133 67.1111 9.61133H66.1697C64.6745 9.61133 63.2448 9.89618 61.9367 10.412C60.9954 10.7832 60.1173 11.2741 59.3225 11.8646H59.322Z" fill="#6EBB2D"/>
<path fill-rule="evenodd" clip-rule="evenodd" d="M61.4498 31.2475L59.3574 33.2613H73.9249L71.8322 31.2475L66.641 26.2518L61.4498 31.2475Z" fill="#6EBB2D"/>
<path fill-rule="evenodd" clip-rule="evenodd" d="M62.9752 3.3922H70.3071C70.8779 3.3922 71.3448 3.84153 71.3448 4.39087V8.26387C72.3183 8.57966 73.2427 9.00115 74.1026 9.51388V4.39087C74.1026 2.38193 72.3946 0.738281 70.3071 0.738281H62.9752C60.8877 0.738281 59.1797 2.38193 59.1797 4.39087V9.51388C60.0396 9.00115 60.9637 8.57966 61.9375 8.26387V4.39087C61.9375 3.84153 62.4044 3.3922 62.9752 3.3922Z" fill="#6EBB2D"/>
<path d="M12.3559 32.9445C18.6732 32.9445 23.2719 29.2341 24.2935 23.8701H17.9762C17.0935 25.9711 15.0036 27.3121 12.3559 27.3121C8.77915 27.3121 6.3637 24.8535 6.3637 21.3224C6.3637 17.7909 8.77915 15.3324 12.3559 15.3324C15.0036 15.3324 17.0935 16.6734 17.9762 18.7744H24.2935C23.2719 13.4104 18.6732 9.70002 12.3559 9.70002C5.1095 9.70002 0 14.6171 0 21.3224C0 28.0274 5.1095 32.9445 12.3559 32.9445ZM39.2971 32.9445C44.8711 32.9445 49.1445 30.0387 50.7703 25.6581H44.1741C43.1524 26.9991 41.5264 27.5356 39.2968 27.5356C36.4169 27.5356 34.1407 26.1054 33.4906 23.1998H51.5134V21.3224C51.5134 14.6171 46.5429 9.70002 39.2968 9.70002C32.0505 9.70002 26.941 14.6171 26.941 21.3224C26.941 28.0274 32.0505 32.9445 39.2968 32.9445H39.2971ZM33.6301 18.953C34.4199 16.4051 36.5564 15.1089 39.2971 15.1089C41.9911 15.1089 44.1743 16.3605 45.0107 18.953H33.6301ZM91.879 32.9445C97.4994 32.9445 101.355 29.9495 101.355 23.736V23.1101H95.0842V23.736C95.0842 26.4181 93.737 27.3118 91.879 27.3118C89.9744 27.3118 88.6276 26.3732 88.6276 23.736V15.7346H99.9615V10.2811H88.6276V2.45826H82.3565V23.736C82.3565 29.9492 86.2121 32.9445 91.879 32.9445ZM104.792 32.3631H111.063V19.6681C111.063 16.4051 112.689 15.3324 115.011 15.3324C117.288 15.3324 118.913 16.4051 118.913 19.6681V19.8916H125.184V19.7576C125.138 12.8739 121.05 9.70002 115.012 9.70002C108.927 9.70002 104.793 12.9188 104.793 19.6684V32.3634L104.792 32.3631ZM138.376 32.9445C141.86 32.9445 144.693 31.3799 145.994 28.385V32.3634H151.754V21.5459C151.754 14.3492 146.737 9.70028 139.537 9.70028C132.244 9.70028 127.135 14.4835 127.135 21.5907C127.135 29.19 133.08 32.9447 138.376 32.9447V32.9445ZM139.491 27.3121C135.914 27.3121 133.499 24.8535 133.499 21.3224C133.499 17.7909 135.914 15.3324 139.491 15.3324C143.067 15.3324 145.483 17.7909 145.483 21.3224C145.483 24.8535 143.067 27.3121 139.491 27.3121ZM157.049 32.3634H163.32V0.625908H157.049V32.3634ZM172.563 7.86741C174.932 7.86741 176.651 6.21319 176.651 3.93358C176.651 1.65396 174.932 0 172.563 0C170.194 0 168.476 1.65396 168.476 3.93358C168.476 6.21319 170.194 7.86741 172.563 7.86741ZM169.405 32.3634H175.676V10.2813H169.405V32.3634ZM191.33 32.9447C194.813 32.9447 197.647 31.3802 198.948 28.3852V32.3637H204.707V21.5461C204.707 14.3495 199.691 9.70054 192.491 9.70054C185.198 9.70054 180.089 14.4838 180.089 21.591C180.089 29.1903 186.034 32.945 191.33 32.945V32.9447ZM192.444 27.3123C188.868 27.3123 186.452 24.8538 186.452 21.3226C186.452 17.7912 188.868 15.3327 192.444 15.3327C196.021 15.3327 198.436 17.7912 198.436 21.3226C198.436 24.8538 196.021 27.3123 192.444 27.3123Z" fill="#056D50"/>
<path d="M34.0208 43.4348V45.8989H26.6191V43.4348H34.0208ZM28.2995 40.601H31.7083V51.628C31.7083 51.9309 31.7563 52.167 31.8523 52.3364C31.9483 52.5007 32.0817 52.6162 32.2524 52.683C32.4284 52.7497 32.6312 52.7831 32.8605 52.7831C33.0206 52.7831 33.1806 52.7702 33.3406 52.7446C33.5007 52.7138 33.6234 52.6907 33.7087 52.6753L34.2448 55.1163C34.0741 55.1676 33.8341 55.2267 33.5247 55.2934C33.2153 55.3653 32.8392 55.4089 32.3964 55.4243C31.5749 55.4551 30.8548 55.3499 30.236 55.1086C29.6225 54.8673 29.145 54.4925 28.8036 53.9843C28.4622 53.4761 28.2942 52.8344 28.2995 52.0592V40.601Z" fill="#6EBB2D"/>
<path d="M36.2413 55.2626V43.4348H39.546V45.4985H39.6741C39.8981 44.7644 40.2742 44.21 40.8023 43.8352C41.3304 43.4553 41.9386 43.2654 42.6267 43.2654C42.7974 43.2654 42.9815 43.2756 43.1789 43.2962C43.3762 43.3167 43.5496 43.345 43.699 43.3809V46.2916C43.5389 46.2454 43.3175 46.2044 43.0348 46.1684C42.7521 46.1325 42.4934 46.1145 42.2586 46.1145C41.7572 46.1145 41.3091 46.2198 40.9143 46.4302C40.5249 46.6356 40.2155 46.9231 39.9861 47.2927C39.7621 47.6623 39.6501 48.0884 39.6501 48.5709V55.2626H36.2413Z" fill="#6EBB2D"/>
<path d="M48.6141 55.4859C47.8299 55.4859 47.1311 55.355 46.5176 55.0932C45.9041 54.8262 45.4187 54.4335 45.0613 53.915C44.7092 53.3914 44.5332 52.7394 44.5332 51.9591C44.5332 51.302 44.6585 50.7502 44.9092 50.3035C45.16 49.8569 45.5014 49.4976 45.9335 49.2255C46.3656 48.9534 46.8563 48.7481 47.4058 48.6095C47.9606 48.4708 48.5421 48.3733 49.1502 48.3168C49.865 48.245 50.4411 48.1782 50.8786 48.1166C51.316 48.0499 51.6334 47.9524 51.8308 47.824C52.0282 47.6957 52.1269 47.5057 52.1269 47.2542V47.208C52.1269 46.7203 51.9668 46.343 51.6467 46.076C51.332 45.8091 50.8839 45.6756 50.3024 45.6756C49.689 45.6756 49.2009 45.8065 48.8381 46.0683C48.4754 46.325 48.2353 46.6484 48.118 47.0386L44.9653 46.7922C45.1253 46.0735 45.44 45.4523 45.9095 44.9287C46.3789 44.3999 46.9844 43.9943 47.7259 43.712C48.4727 43.4245 49.3369 43.2808 50.3184 43.2808C51.0013 43.2808 51.6547 43.3578 52.2789 43.5118C52.9084 43.6658 53.4658 43.9045 53.9513 44.2279C54.442 44.5513 54.8288 44.9672 55.1115 45.4754C55.3943 45.9785 55.5356 46.5817 55.5356 47.285V55.2626H52.3029V53.6224H52.2069C52.0095 53.992 51.7454 54.318 51.4147 54.6004C51.084 54.8776 50.6865 55.0957 50.2224 55.2549C49.7583 55.4089 49.2222 55.4859 48.6141 55.4859ZM49.5903 53.222C50.0917 53.222 50.5345 53.127 50.9186 52.9371C51.3027 52.742 51.6041 52.4802 51.8228 52.1516C52.0415 51.8231 52.1509 51.4509 52.1509 51.0351V49.7799C52.0442 49.8466 51.8975 49.9082 51.7108 49.9647C51.5294 50.0161 51.324 50.0648 51.0946 50.111C50.8652 50.1521 50.6359 50.1906 50.4065 50.2265C50.1771 50.2573 49.969 50.2856 49.7823 50.3112C49.3822 50.3677 49.0328 50.4575 48.7341 50.5808C48.4354 50.704 48.2033 50.8708 48.0379 51.0813C47.8726 51.2866 47.7899 51.5433 47.7899 51.8513C47.7899 52.2979 47.9579 52.6393 48.294 52.8755C48.6354 53.1065 49.0675 53.222 49.5903 53.222Z" fill="#6EBB2D"/>
<path d="M69.1987 43.4348L64.9017 55.2626H61.0609L56.7639 43.4348H60.3647L62.9173 51.8975H63.0453L65.5899 43.4348H69.1987Z" fill="#6EBB2D"/>
<path d="M76.1482 55.4936C74.8839 55.4936 73.7957 55.2472 72.8835 54.7544C71.9766 54.2564 71.2778 53.5531 70.787 52.6445C70.2963 51.7307 70.0509 50.6501 70.0509 49.4026C70.0509 48.1859 70.2963 47.1181 70.787 46.1992C71.2778 45.2803 71.9686 44.5642 72.8595 44.0508C73.7557 43.5375 74.8066 43.2808 76.0122 43.2808C76.8231 43.2808 77.5779 43.4066 78.2767 43.6581C78.9809 43.9045 79.5943 44.2767 80.1171 44.7747C80.6452 45.2726 81.056 45.8989 81.3494 46.6536C81.6428 47.4031 81.7895 48.2809 81.7895 49.2871V50.188H71.4112V48.1551H78.5808C78.5808 47.6828 78.4741 47.2644 78.2607 46.9C78.0473 46.5355 77.7513 46.2506 77.3725 46.0452C76.9991 45.8347 76.5643 45.7295 76.0682 45.7295C75.5508 45.7295 75.092 45.845 74.6919 46.076C74.2972 46.3019 73.9878 46.6073 73.7637 46.9924C73.5396 47.3723 73.425 47.7958 73.4196 48.2629V50.1957C73.4196 50.781 73.5317 51.2866 73.7557 51.7127C73.9851 52.1388 74.3078 52.4673 74.7239 52.6984C75.14 52.9294 75.6335 53.0449 76.2042 53.0449C76.583 53.0449 76.9297 52.9935 77.2445 52.8909C77.5592 52.7882 77.8286 52.6342 78.0527 52.4288C78.2767 52.2235 78.4474 51.972 78.5648 51.6742L81.7175 51.8744C81.5574 52.6034 81.2294 53.24 80.7333 53.7841C80.2425 54.3231 79.6077 54.7441 78.8288 55.047C78.0553 55.3447 77.1618 55.4936 76.1482 55.4936Z" fill="#6EBB2D"/>
<path d="M87.4228 39.4922V55.2626H84.014V39.4922H87.4228Z" fill="#6EBB2D"/>
<path d="M98.8733 55.4859C98.0891 55.4859 97.3903 55.355 96.7769 55.0932C96.1634 54.8262 95.6779 54.4335 95.3205 53.915C94.9685 53.3914 94.7924 52.7394 94.7924 51.9591C94.7924 51.302 94.9178 50.7502 95.1685 50.3035C95.4192 49.8569 95.7606 49.4976 96.1927 49.2255C96.6248 48.9534 97.1156 48.7481 97.6651 48.6095C98.2198 48.4708 98.8013 48.3733 99.4094 48.3168C100.124 48.245 100.7 48.1782 101.138 48.1166C101.575 48.0499 101.893 47.9524 102.09 47.824C102.287 47.6957 102.386 47.5057 102.386 47.2542V47.208C102.386 46.7203 102.226 46.343 101.906 46.076C101.591 45.8091 101.143 45.6756 100.562 45.6756C99.9482 45.6756 99.4601 45.8065 99.0974 46.0683C98.7346 46.325 98.4946 46.6484 98.3772 47.0386L95.2245 46.7922C95.3845 46.0735 95.6993 45.4523 96.1687 44.9287C96.6382 44.3999 97.2436 43.9943 97.9851 43.712C98.732 43.4245 99.5962 43.2808 100.578 43.2808C101.261 43.2808 101.914 43.3578 102.538 43.5118C103.168 43.6658 103.725 43.9045 104.211 44.2279C104.701 44.5513 105.088 44.9672 105.371 45.4754C105.654 45.9785 105.795 46.5817 105.795 47.285V55.2626H102.562V53.6224H102.466C102.269 53.992 102.005 54.318 101.674 54.6004C101.343 54.8776 100.946 55.0957 100.482 55.2549C100.018 55.4089 99.4815 55.4859 98.8733 55.4859ZM99.8495 53.222C100.351 53.222 100.794 53.127 101.178 52.9371C101.562 52.742 101.863 52.4802 102.082 52.1516C102.301 51.8231 102.41 51.4509 102.41 51.0351V49.7799C102.303 49.8466 102.157 49.9082 101.97 49.9647C101.789 50.0161 101.583 50.0648 101.354 50.111C101.124 50.1521 100.895 50.1906 100.666 50.2265C100.436 50.2573 100.228 50.2856 100.042 50.3112C99.6415 50.3677 99.2921 50.4575 98.9934 50.5808C98.6946 50.704 98.4626 50.8708 98.2972 51.0813C98.1318 51.2866 98.0491 51.5433 98.0491 51.8513C98.0491 52.2979 98.2172 52.6393 98.5533 52.8755C98.8947 53.1065 99.3268 53.222 99.8495 53.222Z" fill="#6EBB2D"/>
<path d="M113.977 59.9444C112.872 59.9444 111.926 59.7981 111.136 59.5055C110.352 59.218 109.728 58.8253 109.264 58.3273C108.8 57.8294 108.498 57.2698 108.359 56.6487L111.512 56.2405C111.608 56.4767 111.76 56.6974 111.968 56.9028C112.176 57.1081 112.451 57.2724 112.792 57.3956C113.139 57.5239 113.561 57.5881 114.057 57.5881C114.798 57.5881 115.409 57.4136 115.889 57.0645C116.375 56.7205 116.617 56.143 116.617 55.3319V53.1681H116.473C116.324 53.4966 116.1 53.8072 115.801 54.0998C115.502 54.3924 115.118 54.6312 114.649 54.816C114.179 55.0008 113.619 55.0932 112.968 55.0932C112.046 55.0932 111.205 54.8878 110.448 54.4771C109.696 54.0613 109.096 53.4273 108.648 52.5752C108.205 51.7178 107.983 50.6347 107.983 49.3256C107.983 47.9857 108.21 46.8666 108.664 45.9682C109.117 45.0698 109.72 44.3973 110.472 43.9507C111.229 43.5041 112.059 43.2808 112.96 43.2808C113.649 43.2808 114.225 43.3937 114.689 43.6196C115.153 43.8403 115.526 44.1176 115.809 44.4512C116.097 44.7798 116.319 45.1032 116.473 45.4215H116.601V43.4348H119.986V55.3781C119.986 56.3843 119.73 57.2262 119.218 57.9038C118.706 58.5815 117.996 59.0897 117.089 59.4285C116.188 59.7725 115.15 59.9444 113.977 59.9444ZM114.049 52.6291C114.598 52.6291 115.062 52.4981 115.441 52.2363C115.825 51.9694 116.119 51.5895 116.321 51.0967C116.529 50.5987 116.633 50.0032 116.633 49.3102C116.633 48.6172 116.532 48.0165 116.329 47.5083C116.127 46.9949 115.833 46.5971 115.449 46.3147C115.065 46.0324 114.598 45.8912 114.049 45.8912C113.489 45.8912 113.016 46.0375 112.632 46.3301C112.248 46.6176 111.958 47.018 111.76 47.5314C111.563 48.0448 111.464 48.6377 111.464 49.3102C111.464 49.993 111.563 50.5833 111.76 51.0813C111.963 51.5741 112.254 51.9566 112.632 52.2286C113.016 52.4956 113.489 52.6291 114.049 52.6291Z" fill="#6EBB2D"/>
<path d="M128.3 55.4936C127.036 55.4936 125.947 55.2472 125.035 54.7544C124.128 54.2564 123.429 53.5531 122.939 52.6445C122.448 51.7307 122.203 50.6501 122.203 49.4026C122.203 48.1859 122.448 47.1181 122.939 46.1992C123.429 45.2803 124.12 44.5642 125.011 44.0508C125.907 43.5375 126.958 43.2808 128.164 43.2808C128.975 43.2808 129.73 43.4066 130.428 43.6581C131.133 43.9045 131.746 44.2767 132.269 44.7747C132.797 45.2726 133.208 45.8989 133.501 46.6536C133.794 47.4031 133.941 48.2809 133.941 49.2871V50.188H123.563V48.1551H130.732C130.732 47.6828 130.626 47.2644 130.412 46.9C130.199 46.5355 129.903 46.2506 129.524 46.0452C129.151 45.8347 128.716 45.7295 128.22 45.7295C127.702 45.7295 127.244 45.845 126.844 46.076C126.449 46.3019 126.139 46.6073 125.915 46.9924C125.691 47.3723 125.577 47.7958 125.571 48.2629V50.1957C125.571 50.781 125.683 51.2866 125.907 51.7127C126.137 52.1388 126.46 52.4673 126.876 52.6984C127.292 52.9294 127.785 53.0449 128.356 53.0449C128.735 53.0449 129.081 52.9935 129.396 52.8909C129.711 52.7882 129.98 52.6342 130.204 52.4288C130.428 52.2235 130.599 51.972 130.716 51.6742L133.869 51.8744C133.709 52.6034 133.381 53.24 132.885 53.7841C132.394 54.3231 131.759 54.7441 130.981 55.047C130.207 55.3447 129.313 55.4936 128.3 55.4936Z" fill="#6EBB2D"/>
<path d="M139.574 48.4246V55.2626H136.166V43.4348H139.414V45.5216H139.558C139.83 44.8337 140.287 44.2895 140.927 43.8891C141.567 43.4836 142.343 43.2808 143.255 43.2808C144.109 43.2808 144.853 43.4605 145.488 43.8198C146.123 44.1792 146.616 44.6925 146.968 45.3599C147.32 46.0221 147.496 46.8127 147.496 47.7316V55.2626H144.087V48.3168C144.093 47.593 143.901 47.0283 143.511 46.6227C143.122 46.2121 142.586 46.0067 141.903 46.0067C141.444 46.0067 141.039 46.1017 140.687 46.2916C140.34 46.4816 140.068 46.7588 139.87 47.1233C139.678 47.4826 139.58 47.9164 139.574 48.4246Z" fill="#6EBB2D"/>
<path d="M155.736 55.4936C154.477 55.4936 153.394 55.2369 152.487 54.7236C151.586 54.2051 150.892 53.4864 150.407 52.5675C149.927 51.6485 149.687 50.591 149.687 49.3949C149.687 48.1834 149.929 47.1207 150.415 46.2069C150.906 45.288 151.602 44.5719 152.503 44.0585C153.405 43.54 154.477 43.2808 155.72 43.2808C156.792 43.2808 157.731 43.4682 158.537 43.8429C159.342 44.2177 159.98 44.7439 160.449 45.4215C160.919 46.0991 161.177 46.8948 161.225 47.8086H158.009C157.918 47.2182 157.678 46.7434 157.288 46.384C156.904 46.0196 156.4 45.8373 155.776 45.8373C155.248 45.8373 154.787 45.9759 154.392 46.2531C154.002 46.5252 153.698 46.9231 153.48 47.4467C153.261 47.9703 153.151 48.6043 153.151 49.3487C153.151 50.1033 153.258 50.745 153.472 51.2738C153.69 51.8025 153.997 52.2055 154.392 52.4827C154.787 52.76 155.248 52.8986 155.776 52.8986C156.165 52.8986 156.515 52.8216 156.824 52.6676C157.139 52.5135 157.398 52.2902 157.6 51.9976C157.809 51.6999 157.945 51.3431 158.009 50.9273H161.225C161.172 51.8308 160.916 52.6265 160.457 53.3144C160.004 53.9972 159.377 54.5311 158.577 54.9161C157.777 55.3011 156.83 55.4936 155.736 55.4936Z" fill="#6EBB2D"/>
<path d="M165.512 59.698C165.08 59.698 164.675 59.6646 164.296 59.5979C163.923 59.5363 163.613 59.4567 163.368 59.3592L164.136 56.9105C164.536 57.0285 164.896 57.0927 165.216 57.103C165.542 57.1132 165.822 57.0414 166.056 56.8874C166.296 56.7334 166.491 56.4715 166.641 56.1019L166.841 55.6014L162.432 43.4348H166.016L168.561 52.1208H168.689L171.258 43.4348H174.866L170.089 56.5409C169.86 57.1774 169.548 57.7318 169.153 58.2041C168.764 58.6816 168.27 59.0486 167.673 59.3053C167.075 59.5671 166.355 59.698 165.512 59.698Z" fill="#6EBB2D"/>
</svg>
