<svg width="400" height="225" viewBox="0 0 400 225" fill="none" xmlns="http://www.w3.org/2000/svg">
  <rect width="400" height="225" fill="#F3F4F6"/>
  <rect x="20" y="20" width="360" height="185" rx="8" fill="#E5E7EB"/>
  
  <!-- Document icon -->
  <rect x="160" y="80" width="80" height="100" rx="4" fill="#9CA3AF"/>
  <rect x="170" y="90" width="60" height="4" rx="2" fill="#6B7280"/>
  <rect x="170" y="100" width="50" height="4" rx="2" fill="#6B7280"/>
  <rect x="170" y="110" width="55" height="4" rx="2" fill="#6B7280"/>
  <rect x="170" y="120" width="45" height="4" rx="2" fill="#6B7280"/>
  <rect x="170" y="130" width="60" height="4" rx="2" fill="#6B7280"/>
  <rect x="170" y="140" width="40" height="4" rx="2" fill="#6B7280"/>
  <rect x="170" y="150" width="55" height="4" rx="2" fill="#6B7280"/>
  <rect x="170" y="160" width="50" height="4" rx="2" fill="#6B7280"/>
  
  <!-- Text lines -->
  <rect x="60" y="180" width="280" height="8" rx="4" fill="#D1D5DB"/>
  <rect x="80" y="195" width="240" height="6" rx="3" fill="#E5E7EB"/>
  
  <!-- Icon -->
  <circle cx="200" cy="110" r="15" fill="#6B7280"/>
  <path d="M200 100 L200 120 M190 110 L210 110" stroke="white" stroke-width="2" stroke-linecap="round"/>
</svg>
