<svg width="187" height="150" viewBox="0 0 187 150" fill="none" xmlns="http://www.w3.org/2000/svg">
<path d="M75 150C116.421 150 150 116.421 150 75C150 33.5786 116.421 0 75 0C33.5786 0 0 33.5786 0 75C0 116.421 33.5786 150 75 150Z" fill="url(#paint0_linear_831_8154)"/>
<g filter="url(#filter0_d_831_8154)">
<path d="M41 34H176C177.326 34 178.598 34.5268 179.536 35.4645C180.473 36.4021 181 37.6739 181 39V64C181 65.3261 180.473 66.5979 179.536 67.5355C178.598 68.4732 177.326 69 176 69H41C39.6739 69 38.4021 68.4732 37.4645 67.5355C36.5268 66.5979 36 65.3261 36 64V39C36 37.6739 36.5268 36.4021 37.4645 35.4645C38.4021 34.5268 39.6739 34 41 34V34Z" fill="white"/>
</g>
<path d="M105 42H79C77.3431 42 76 43.3431 76 45C76 46.6569 77.3431 48 79 48H105C106.657 48 108 46.6569 108 45C108 43.3431 106.657 42 105 42Z" fill="#DDFFB4"/>
<path d="M123 55H79C77.3431 55 76 56.3431 76 58C76 59.6569 77.3431 61 79 61H123C124.657 61 126 59.6569 126 58C126 56.3431 124.657 55 123 55Z" fill="#DEFCEB"/>
<path d="M68 51.5C68 43.4919 61.5081 37 53.5 37C45.4919 37 39 43.4919 39 51.5C39 59.5081 45.4919 66 53.5 66C61.5081 66 68 59.5081 68 51.5Z" fill="#6EBB2D"/>
<path d="M52.6 56.1939C53.8413 56.1937 55.0469 55.7784 56.025 55.0139L59.1 58.0889L60.089 57.0999L57.013 54.0239C57.7858 53.0247 58.1974 51.7932 58.1807 50.5302C58.1641 49.2671 57.7201 48.0469 56.9212 47.0684C56.1223 46.09 55.0155 45.411 53.7813 45.1421C52.547 44.8731 51.2581 45.0302 50.1245 45.5876C48.991 46.145 48.0796 47.0699 47.539 48.2115C46.9984 49.3532 46.8604 50.6443 47.1475 51.8744C47.4346 53.1046 48.1299 54.2012 49.12 54.9856C50.1102 55.77 51.3368 56.1959 52.6 56.1939ZM52.6 46.3999C53.4306 46.3999 54.2427 46.6462 54.9334 47.1077C55.624 47.5692 56.1624 48.2252 56.4803 48.9926C56.7981 49.7601 56.8813 50.6046 56.7193 51.4193C56.5572 52.234 56.1572 52.9824 55.5698 53.5698C54.9824 54.1571 54.2341 54.5572 53.4193 54.7192C52.6046 54.8813 51.7601 54.7981 50.9927 54.4802C50.2252 54.1623 49.5693 53.624 49.1078 52.9333C48.6463 52.2426 48.4 51.4306 48.4 50.5999C48.4 49.486 48.8425 48.4177 49.6301 47.6301C50.4178 46.8424 51.4861 46.3999 52.6 46.3999Z" fill="white"/>
<g filter="url(#filter1_d_831_8154)">
<path d="M161 79H26C23.2386 79 21 81.2386 21 84V109C21 111.761 23.2386 114 26 114H161C163.761 114 166 111.761 166 109V84C166 81.2386 163.761 79 161 79Z" fill="white"/>
</g>
<path d="M90 87H64C62.3431 87 61 88.3431 61 90C61 91.6569 62.3431 93 64 93H90C91.6569 93 93 91.6569 93 90C93 88.3431 91.6569 87 90 87Z" fill="#DDFFB4"/>
<path d="M108 100H64C62.3431 100 61 101.343 61 103C61 104.657 62.3431 106 64 106H108C109.657 106 111 104.657 111 103C111 101.343 109.657 100 108 100Z" fill="#DEFCEB"/>
<path d="M53 96.5C53 88.4919 46.5081 82 38.5 82C30.4919 82 24 88.4919 24 96.5C24 104.508 30.4919 111 38.5 111C46.5081 111 53 104.508 53 96.5Z" fill="#6EBB2D"/>
<path d="M37.6 101.194C38.8413 101.194 40.0469 100.778 41.025 100.014L44.1 103.089L45.089 102.1L42.013 99.0239C42.7858 98.0247 43.1974 96.7932 43.1807 95.5302C43.1641 94.2671 42.7201 93.0469 41.9212 92.0684C41.1223 91.09 40.0155 90.411 38.7813 90.1421C37.547 89.8731 36.2581 90.0302 35.1245 90.5876C33.991 91.145 33.0796 92.0699 32.539 93.2115C31.9984 94.3532 31.8604 95.6443 32.1475 96.8744C32.4346 98.1046 33.1299 99.2012 34.12 99.9856C35.1102 100.77 36.3368 101.196 37.6 101.194ZM37.6 91.3999C38.4306 91.3999 39.2427 91.6462 39.9334 92.1077C40.624 92.5692 41.1624 93.2252 41.4803 93.9926C41.7981 94.7601 41.8813 95.6046 41.7193 96.4193C41.5572 97.234 41.1572 97.9824 40.5698 98.5698C39.9824 99.1571 39.2341 99.5572 38.4193 99.7192C37.6046 99.8813 36.7601 99.7981 35.9927 99.4802C35.2252 99.1623 34.5693 98.624 34.1078 97.9333C33.6463 97.2426 33.4 96.4306 33.4 95.5999C33.4 94.486 33.8425 93.4177 34.6301 92.6301C35.4178 91.8424 36.4861 91.3999 37.6 91.3999Z" fill="white"/>
<defs>
<filter id="filter0_d_831_8154" x="30" y="31" width="157" height="47" filterUnits="userSpaceOnUse" color-interpolation-filters="sRGB">
<feFlood flood-opacity="0" result="BackgroundImageFix"/>
<feColorMatrix in="SourceAlpha" type="matrix" values="0 0 0 0 0 0 0 0 0 0 0 0 0 0 0 0 0 0 127 0" result="hardAlpha"/>
<feOffset dy="3"/>
<feGaussianBlur stdDeviation="3"/>
<feColorMatrix type="matrix" values="0 0 0 0 0 0 0 0 0 0 0 0 0 0 0 0 0 0 0.161 0"/>
<feBlend mode="normal" in2="BackgroundImageFix" result="effect1_dropShadow_831_8154"/>
<feBlend mode="normal" in="SourceGraphic" in2="effect1_dropShadow_831_8154" result="shape"/>
</filter>
<filter id="filter1_d_831_8154" x="15" y="76" width="157" height="47" filterUnits="userSpaceOnUse" color-interpolation-filters="sRGB">
<feFlood flood-opacity="0" result="BackgroundImageFix"/>
<feColorMatrix in="SourceAlpha" type="matrix" values="0 0 0 0 0 0 0 0 0 0 0 0 0 0 0 0 0 0 127 0" result="hardAlpha"/>
<feOffset dy="3"/>
<feGaussianBlur stdDeviation="3"/>
<feColorMatrix type="matrix" values="0 0 0 0 0 0 0 0 0 0 0 0 0 0 0 0 0 0 0.161 0"/>
<feBlend mode="normal" in2="BackgroundImageFix" result="effect1_dropShadow_831_8154"/>
<feBlend mode="normal" in="SourceGraphic" in2="effect1_dropShadow_831_8154" result="shape"/>
</filter>
<linearGradient id="paint0_linear_831_8154" x1="75" y1="0" x2="75" y2="150" gradientUnits="userSpaceOnUse">
<stop stop-color="#E7FAE3"/>
<stop offset="1" stop-color="#DAFFDA"/>
</linearGradient>
</defs>
</svg>
