<?xml version="1.0" encoding="UTF-8"?>
<!DOCTYPE svg PUBLIC "-//W3C//DTD SVG 1.1//EN" "http://www.w3.org/Graphics/SVG/1.1/DTD/svg11.dtd">
<!-- Creator: CorelDRAW -->
<svg xmlns="http://www.w3.org/2000/svg" xml:space="preserve" width="51.3167mm" height="68.7994mm" version="1.1" style="shape-rendering:geometricPrecision; text-rendering:geometricPrecision; image-rendering:optimizeQuality; fill-rule:evenodd; clip-rule:evenodd"
viewBox="0 0 5124.07 6869.75"
 xmlns:xlink="http://www.w3.org/1999/xlink"
 xmlns:xodm="http://www.corel.com/coreldraw/odm/2003">
 <defs>
  <style type="text/css">
   <![CDATA[
    .fil0 {fill:#FEFEFE}
    .fil1 {fill:#056D50}
    .fil2 {fill:#6EBB2D}
   ]]>
  </style>
 </defs>
 <g id="Слой_x0020_1">
  <metadata id="CorelCorpID_0Corel-Layer"/>
  <g id="_2447777952496">
   <path class="fil0" d="M2268.21 0l587.66 0c1248.4,0 2268.21,1019.81 2268.21,2268.21l0 2333.34c0,1248.4 -1019.81,2268.21 -2268.21,2268.21l-587.66 0c-1248.4,0 -2268.21,-1019.81 -2268.21,-2268.21l0 -2333.34c0,-1248.4 1019.81,-2268.21 2268.21,-2268.21z"/>
   <path class="fil1" d="M2268.21 452.76l587.66 0c405.42,0 780.91,134.68 1083.94,361.51 443.29,331.83 731.52,860.85 731.52,1453.93l0 2333.34c0,998.5 -816.95,1815.46 -1815.46,1815.46l-587.66 0c-998.51,0 -1815.46,-816.96 -1815.46,-1815.46l0 -2333.34c0,-593.08 288.22,-1122.11 731.52,-1453.93 303.03,-226.83 678.52,-361.51 1083.94,-361.51zm-2068.5 1815.45l0 2333.34c0,1138.17 930.33,2068.5 2068.5,2068.5l587.66 0c1138.17,0 2068.5,-930.33 2068.5,-2068.5l0 -2333.34c0,-1138.17 -930.33,-2068.5 -2068.5,-2068.5l-587.66 0c-1138.17,0 -2068.5,930.33 -2068.5,2068.5z"/>
   <path class="fil2" d="M4017.55 5704.03l0 -1397.03c0,-448.84 -214.52,-850.01 -546.1,-1106.05 -98.76,-76.27 -207.91,-139.65 -324.87,-187.58 -162.57,-66.63 -340.24,-103.41 -526.06,-103.41l-116.98 0c-185.82,0 -363.49,36.78 -526.05,103.41 -116.97,47.93 -226.11,111.31 -324.89,187.58 -331.57,256.04 -546.08,657.21 -546.08,1106.05l0 1397.03 0.67 0 645.13 -645.12 -0.68 0 0 -751.9c0,-412.27 339.63,-751.91 751.89,-751.91l116.98 0c412.27,0 751.89,339.65 751.89,751.91l0 751.9 -0.68 0 645.13 645.12 0.68 0z"/>
   <path class="fil2" d="M3017.62 2106.79c70.93,0 128.97,58.02 128.97,128.96l0 500.15c121,40.78 235.86,95.21 342.72,161.44l0 -661.59c0,-259.44 -212.27,-471.69 -471.69,-471.69l-911.16 0c-259.43,0 -471.69,212.26 -471.69,471.69l0 661.59c106.86,-66.23 221.72,-120.66 342.73,-161.44l0 -500.15c0,-70.93 58.03,-128.96 128.96,-128.96l911.16 0z"/>
   <polygon class="fil2" points="2562.04,5058.91 1916.91,5704.03 1656.85,5964.1 3467.22,5964.1 3207.16,5704.03 "/>
   <path class="fil2" d="M2268.23 1175.79l587.67 0c364.93,0 705.61,-109.17 991.05,-296.42 -289.46,-207.58 -633.98,-319.25 -991.09,-319.25l-587.66 0c-357.11,0 -701.6,111.66 -991.06,319.25 285.44,187.25 626.13,296.42 991.09,296.42z"/>
  </g>
 </g>
</svg>
