<?xml version="1.0" encoding="UTF-8"?>
<!DOCTYPE svg PUBLIC "-//W3C//DTD SVG 1.1//EN" "http://www.w3.org/Graphics/SVG/1.1/DTD/svg11.dtd">
<!-- Creator: CorelDRAW -->
<svg xmlns="http://www.w3.org/2000/svg" xml:space="preserve" width="72.1133mm" height="17.9798mm" version="1.1" style="shape-rendering:geometricPrecision; text-rendering:geometricPrecision; image-rendering:optimizeQuality; fill-rule:evenodd; clip-rule:evenodd"
viewBox="0 0 7203.73 1796.08"
 xmlns:xlink="http://www.w3.org/1999/xlink"
 xmlns:xodm="http://www.corel.com/coreldraw/odm/2003">
 <defs>
  <style type="text/css">
   <![CDATA[
    .fil2 {fill:#056D50}
    .fil3 {fill:#6EBB2D}
    .fil0 {fill:#056D50;fill-rule:nonzero}
    .fil1 {fill:#999999;fill-rule:nonzero}
   ]]>
  </style>
 </defs>
 <g id="Слой_x0020_1">
  <metadata id="CorelCorpID_0Corel-Layer"/>
  <g id="_2446803967424">
   <path class="fil0" d="M1859.91 951.07c175.5,0 303.26,-107.11 331.65,-261.96l-175.5 0c-24.51,60.66 -82.59,99.37 -156.15,99.37 -99.37,0 -166.47,-70.98 -166.47,-172.92 0,-101.95 67.11,-172.93 166.47,-172.93 73.55,0 131.63,38.72 156.15,99.37l175.5 0c-28.39,-154.86 -156.15,-261.96 -331.65,-261.96 -201.32,0 -343.27,141.95 -343.27,335.53 0,193.57 141.95,335.52 343.27,335.52z"/>
   <path id="_1" class="fil0" d="M2608.38 951.07c154.86,0 273.58,-83.88 318.74,-210.34l-183.25 0c-28.39,38.71 -73.55,54.19 -135.5,54.19 -80.01,0 -143.24,-41.3 -161.31,-125.18l500.7 0 0 -54.19c0,-193.58 -138.07,-335.53 -339.39,-335.53 -201.32,0 -343.27,141.95 -343.27,335.53 0,193.57 141.95,335.52 343.27,335.52zm-157.43 -403.91c21.94,-73.55 81.29,-110.98 157.43,-110.98 74.85,0 135.5,36.13 158.72,110.98l-316.16 0z"/>
   <path id="_2" class="fil0" d="M3048.42 934.29l174.22 0 0 -330.36c0,-110.98 56.78,-161.31 140.66,-161.31 83.88,0 140.66,50.33 140.66,161.31l0 330.36 174.21 0 0 -330.36c0,-215.5 -126.47,-323.91 -314.87,-323.91 -188.41,0 -314.88,109.69 -314.88,323.91l0 330.36z"/>
   <path id="_3" class="fil0" d="M4069.18 951.07c156.16,0 263.26,-86.46 263.26,-265.83l0 -18.07 -174.22 0 0 18.07c0,77.43 -37.42,103.23 -89.05,103.23 -52.9,0 -90.32,-27.1 -90.32,-103.23l0 -231 314.87 0 0 -157.43 -314.87 0 0 -225.83 -174.22 0 0 614.26c0,179.37 107.11,265.83 264.54,265.83z"/>
   <path id="_4" class="fil0" d="M4427.93 934.29l174.22 0 0 -366.49c0,-94.2 45.16,-125.18 109.68,-125.18 63.23,0 108.41,30.98 108.41,125.18l0 6.45 174.21 0 0 -3.88c-1.29,-198.73 -114.85,-290.35 -282.61,-290.35 -169.05,0 -283.9,92.91 -283.9,287.78l0 366.49z"/>
   <path id="_5" class="fil0" d="M5360.94 951.07c96.78,0 175.49,-45.16 211.64,-131.62l0 114.85 160.01 0 0 -312.29c0,-207.77 -139.36,-341.98 -339.39,-341.98 -202.61,0 -344.56,138.08 -344.56,343.27 0,219.38 165.19,327.77 312.3,327.77l0 0zm30.97 -162.6c-99.37,0 -166.47,-70.98 -166.47,-172.92 0,-101.95 67.11,-172.93 166.47,-172.93 99.37,0 166.47,70.98 166.47,172.93 0,101.94 -67.11,172.92 -166.47,172.92z"/>
   <polygon id="_6" class="fil0" points="5879.71,934.29 6053.92,934.29 6053.92,18.06 5879.71,18.06 "/>
   <path id="_7" class="fil0" d="M6310.72 227.12c65.82,0 113.56,-47.75 113.56,-113.56 0,-65.82 -47.74,-113.56 -113.56,-113.56 -65.81,0 -113.56,47.74 -113.56,113.56 0,65.81 47.75,113.56 113.56,113.56zm-87.75 707.17l174.22 0 0 -637.49 -174.22 0 0 637.49z"/>
   <path id="_8" class="fil0" d="M6832.08 951.07c96.78,0 175.49,-45.16 211.64,-131.62l0 114.85 160.01 0 0 -312.29c0,-207.77 -139.36,-341.98 -339.39,-341.98 -202.61,0 -344.56,138.08 -344.56,343.27 0,219.38 165.19,327.77 312.3,327.77l0 0zm30.97 -162.6c-99.37,0 -166.47,-70.98 -166.47,-172.92 0,-101.95 67.11,-172.93 166.47,-172.93 99.37,0 166.47,70.98 166.47,172.93 0,101.94 -67.11,172.92 -166.47,172.92z"/>
   <path class="fil1" d="M1671.15 1642.3c-63.05,0 -94.58,-29.6 -94.58,-88.81l0 -238.26 -59.93 0 0 -77.98 59.93 0 0 -145.85 97.48 0 0 145.85 77.97 0 0 77.98 -77.97 0 0 208.66c0,12.52 2.04,21.9 6.13,28.15 4.09,6.26 13.12,9.39 27.07,9.39l44.04 0 0 80.86 -80.15 0z"/>
   <path id="_1_0" class="fil1" d="M1820.61 1642.3l0 -405.04 97.47 0 0 48.38c14.92,-20.7 31.65,-35.38 50.18,-44.04 18.53,-8.66 40.32,-13 65.34,-13l11.56 0 0 93.86 -22.39 0c-30.81,0 -54.87,8.18 -72.19,24.54 -11.08,11.07 -19.26,25.15 -24.55,42.24 -5.29,17.09 -7.94,38.87 -7.94,65.34l0 187.72 -97.47 0z"/>
   <path id="_2_1" class="fil1" d="M2215.54 1650.24c-39.48,0 -71.48,-10.47 -96.03,-31.41 -24.55,-20.94 -36.82,-50.18 -36.82,-87.73 0,-40.43 15.4,-71.23 46.2,-92.41 22.15,-15.4 53.67,-26.95 94.59,-34.65l120.57 -22.39c-0.97,-25.02 -7.46,-44.03 -19.5,-57.03 -12.03,-13 -30.08,-19.5 -54.14,-19.5 -18.78,0 -35.26,5.53 -49.46,16.6 -14.21,11.08 -22.99,25.99 -26.35,44.77l-96.75 0c6.73,-44.77 26.47,-78.95 59.2,-102.53 32.74,-23.59 70.76,-35.37 114.08,-35.37 24.54,0 47.41,3.49 68.59,10.47 21.18,6.98 39.23,17.2 54.15,30.69 14.91,13 25.75,28.15 32.49,45.48 6.74,17.33 10.95,34.65 12.64,51.99 1.69,17.32 2.53,38.75 2.53,64.25l0 210.83 -97.47 0 0 -54.87c-10.11,17.81 -22.39,31.29 -36.82,40.43 -22.63,14.92 -53.19,22.39 -91.69,22.39zm23.82 -76.53c19.25,0 36.58,-3.86 51.99,-11.56 20.21,-10.11 34.17,-23.59 41.88,-40.43 7.69,-16.85 12.03,-39.71 13,-68.59l-96.75 19.49c-25.99,4.81 -44.77,12.52 -56.32,23.11 -8.66,8.66 -13,19.25 -13,31.77 0,14.92 5.41,26.35 16.24,34.29 10.83,7.94 25.15,11.92 42.96,11.92z"/>
   <polygon id="_3_2" class="fil1" points="2708.66,1642.3 2631.4,1642.3 2481.95,1237.25 2585.92,1237.25 2669.67,1492.84 2754.87,1237.25 2858.83,1237.25 "/>
   <path id="_4_3" class="fil1" d="M3092.04 1650.24c-40.91,0 -77.01,-8.9 -108.3,-26.71 -31.29,-17.81 -55.47,-42.48 -72.56,-74 -17.08,-31.54 -25.63,-67.27 -25.63,-107.22 0,-37.07 7.58,-71.84 22.75,-104.33 15.16,-32.5 38.03,-58.85 68.59,-79.07 30.57,-20.21 67.99,-30.32 112.27,-30.32 36.58,0 70.28,7.58 101.08,22.75 30.81,15.15 55.59,38.5 74.36,70.03 18.78,31.53 28.16,70.64 28.16,117.33l0 20.94 -306.13 0c1.45,16.85 6.5,32.74 15.16,47.65 9.63,18.78 22.51,33.33 38.63,43.68 16.12,10.35 34.53,15.52 55.23,15.52 22.14,0 41.16,-5.65 57.04,-16.96 15.88,-11.32 27.19,-25.87 33.93,-43.68l99.63 0c-13,42.83 -35.86,77.62 -68.6,104.33 -32.73,26.71 -74.6,40.07 -125.63,40.07zm101.08 -263.53c-1.93,-15.4 -6.98,-27.91 -15.16,-37.54 -9.14,-13.96 -21.18,-24.66 -36.1,-32.13 -14.91,-7.46 -31.53,-11.2 -49.82,-11.2 -18.29,0 -34.77,3.62 -49.45,10.84 -14.68,7.21 -26.6,18.04 -35.74,32.49 -8.66,10.59 -13.96,23.11 -15.88,37.54l202.16 0z"/>
   <path id="_5_4" class="fil1" d="M3456.65 1642.3c-30.81,0 -54.15,-7.1 -70.04,-21.3 -15.88,-14.21 -23.82,-36.7 -23.82,-67.51l0 -462.08 97.48 0 0 433.2c0,13.48 2.53,22.99 7.57,28.52 5.05,5.53 13.61,8.3 25.63,8.3l25.99 0 0 80.86 -62.81 0z"/>
   <path id="_6_5" class="fil1" d="M3892.74 1650.24c-39.48,0 -71.48,-10.47 -96.03,-31.41 -24.55,-20.94 -36.82,-50.18 -36.82,-87.73 0,-40.43 15.4,-71.23 46.2,-92.41 22.15,-15.4 53.67,-26.95 94.59,-34.65l120.57 -22.39c-0.97,-25.02 -7.46,-44.03 -19.5,-57.03 -12.03,-13 -30.08,-19.5 -54.14,-19.5 -18.78,0 -35.26,5.53 -49.46,16.6 -14.21,11.08 -22.99,25.99 -26.35,44.77l-96.75 0c6.73,-44.77 26.47,-78.95 59.2,-102.53 32.74,-23.59 70.76,-35.37 114.08,-35.37 24.54,0 47.41,3.49 68.59,10.47 21.18,6.98 39.23,17.2 54.15,30.69 14.91,13 25.75,28.15 32.49,45.48 6.74,17.33 10.95,34.65 12.64,51.99 1.69,17.32 2.53,38.75 2.53,64.25l0 210.83 -97.47 0 0 -54.87c-10.11,17.81 -22.39,31.29 -36.82,40.43 -22.63,14.92 -53.19,22.39 -91.69,22.39zm23.82 -76.53c19.25,0 36.58,-3.86 51.99,-11.56 20.21,-10.11 34.17,-23.59 41.88,-40.43 7.69,-16.85 12.03,-39.71 13,-68.59l-96.75 19.49c-25.99,4.81 -44.77,12.52 -56.32,23.11 -8.66,8.66 -13,19.25 -13,31.77 0,14.92 5.41,26.35 16.24,34.29 10.83,7.94 25.15,11.92 42.96,11.92z"/>
   <path id="_7_6" class="fil1" d="M4388.75 1796.08c-48.13,0 -89.41,-9.99 -123.82,-29.97 -34.41,-19.97 -55.72,-54.02 -63.9,-102.16l98.2 0c6.25,19.74 16.6,34.05 31.05,42.96 14.43,8.9 33.69,13.36 57.76,13.36 31.77,0 55.35,-7.22 70.76,-21.66 15.4,-14.44 23.11,-34.18 23.11,-59.21l0 -57.04c-15.88,22.15 -32.86,37.54 -50.91,46.21 -18.05,8.66 -39.59,13 -64.62,13 -34.65,0 -65.46,-8.79 -92.41,-26.35 -26.95,-17.57 -47.89,-42 -62.81,-73.28 -14.92,-31.29 -22.38,-66.43 -22.38,-105.42 0,-39.95 7.45,-75.69 22.38,-107.22 14.92,-31.53 35.86,-56.19 62.81,-74 26.95,-17.81 57.76,-26.71 92.41,-26.71 25.03,0 46.57,4.46 64.62,13.36 18.05,8.9 35.02,24.42 50.91,46.57l0 -51.27 97.47 0 0 379.05c0,64.98 -16.97,111.19 -50.91,138.62 -33.93,27.44 -80.5,41.16 -139.7,41.16zm0.72 -238.26c20.22,0 38.27,-5.29 54.15,-15.88 15.88,-10.59 28.28,-25.27 37.18,-44.04 8.91,-18.77 13.36,-39.71 13.36,-62.81 0,-23.11 -4.45,-44.04 -13.36,-62.81 -8.9,-18.77 -21.3,-33.45 -37.18,-44.04 -15.88,-10.59 -33.93,-15.88 -54.15,-15.88 -30.8,0 -55.59,11.67 -74.36,35.01 -18.77,23.35 -28.16,52.58 -28.16,87.73 0,35.13 9.39,64.37 28.16,87.72 18.77,23.35 43.56,35.02 74.36,35.02z"/>
   <path id="_8_7" class="fil1" d="M4857.32 1650.24c-40.91,0 -77.01,-8.9 -108.3,-26.71 -31.29,-17.81 -55.47,-42.48 -72.56,-74 -17.08,-31.54 -25.63,-67.27 -25.63,-107.22 0,-37.07 7.58,-71.84 22.75,-104.33 15.16,-32.5 38.03,-58.85 68.59,-79.07 30.57,-20.21 67.99,-30.32 112.27,-30.32 36.58,0 70.28,7.58 101.08,22.75 30.81,15.15 55.59,38.5 74.36,70.03 18.78,31.53 28.16,70.64 28.16,117.33l0 20.94 -306.13 0c1.45,16.85 6.5,32.74 15.16,47.65 9.63,18.78 22.51,33.33 38.63,43.68 16.12,10.35 34.53,15.52 55.23,15.52 22.14,0 41.16,-5.65 57.04,-16.96 15.88,-11.32 27.19,-25.87 33.93,-43.68l99.63 0c-13,42.83 -35.86,77.62 -68.6,104.33 -32.73,26.71 -74.6,40.07 -125.63,40.07zm101.08 -263.53c-1.93,-15.4 -6.98,-27.91 -15.16,-37.54 -9.14,-13.96 -21.18,-24.66 -36.1,-32.13 -14.91,-7.46 -31.53,-11.2 -49.82,-11.2 -18.29,0 -34.77,3.62 -49.45,10.84 -14.68,7.21 -26.6,18.04 -35.74,32.49 -8.66,10.59 -13.96,23.11 -15.88,37.54l202.16 0z"/>
   <path id="_9" class="fil1" d="M5129.53 1642.3l0 -405.04 97.47 0 0 51.27c15.4,-21.67 32.01,-37.06 49.82,-46.21 17.81,-9.14 38.03,-13.72 60.65,-13.72 62.57,0 104.69,22.62 126.36,67.87 7.21,15.88 11.79,32.01 13.72,48.37 1.93,16.37 2.89,37.79 2.89,64.26l0 233.2 -96.75 0 0 -234.65c0,-38.99 -6.74,-65.94 -20.22,-80.86 -11.55,-12.03 -28.64,-18.05 -51.26,-18.05 -27.44,0 -47.9,8.19 -61.38,24.55 -8.18,9.63 -14.2,22.5 -18.05,38.63 -3.85,16.12 -5.77,37.42 -5.77,63.89l0 206.49 -97.47 0z"/>
   <path id="_10" class="fil1" d="M5755.5 1650.24c-40.43,0 -76.17,-8.9 -107.22,-26.71 -31.05,-17.81 -55.23,-42.84 -72.56,-75.09 -17.32,-32.25 -25.99,-69.31 -25.99,-111.18 0,-40.44 8.67,-76.54 25.99,-108.31 17.33,-31.77 41.52,-56.43 72.56,-74 31.05,-17.57 66.79,-26.35 107.22,-26.35 48.62,0 89.9,12.4 123.82,37.18 33.93,24.79 55.96,58.36 66.07,100.72l-106.14 0c-6.25,-18.78 -16.6,-33.21 -31.05,-43.32 -14.43,-10.11 -32.01,-15.16 -52.7,-15.16 -31.77,0 -57.4,11.8 -76.89,35.38 -19.5,23.59 -29.24,54.87 -29.24,93.86 0,40.43 9.74,72.79 29.24,97.11 19.49,24.3 45.12,36.46 76.89,36.46 23.11,0 41.88,-5.65 56.32,-16.97 14.43,-11.31 24.3,-27.31 29.6,-48.01l105.41 0c-9.14,44.76 -31.05,80.02 -65.7,105.77 -34.65,25.75 -76.53,38.63 -125.63,38.63z"/>
   <path id="_11" class="fil1" d="M6021.19 1788.14l0 -82.31 44.04 0c14.44,0 25.39,-2.04 32.86,-6.13 7.46,-4.1 13.84,-13.12 19.13,-27.07l10.83 -28.88 -149.45 -406.49 105.41 0 94.58 297.47 85.2 -297.47 104.69 0 -157.39 452.69c-12.52,36.1 -27.8,61.5 -45.85,76.17 -18.05,14.68 -43.67,22.03 -76.89,22.03l-67.15 0z"/>
   <path class="fil2" d="M534.34 127.7l151.8 0c104.73,0 201.72,34.79 280,93.38 114.51,85.72 188.96,222.38 188.96,375.58l0 602.74c0,257.93 -211.04,468.97 -468.97,468.97l-151.8 0c-257.94,0 -468.97,-211.04 -468.97,-468.97l0 -602.74c0,-153.21 74.45,-289.86 188.96,-375.58 78.28,-58.59 175.28,-93.38 280,-93.38zm-534.34 468.97l0 602.74c0,294.01 240.32,534.33 534.34,534.33l151.8 0c294.01,0 534.33,-240.32 534.33,-534.33l0 -602.74c0,-294.01 -240.32,-534.34 -534.33,-534.34l-151.8 0c-294.02,0 -534.34,240.33 -534.34,534.34z"/>
   <path class="fil3" d="M986.22 1484.19l0 -360.88c0,-115.95 -55.41,-219.57 -141.07,-285.71 -25.51,-19.7 -53.7,-36.08 -83.92,-48.46 -41.99,-17.21 -87.89,-26.71 -135.89,-26.71l-30.22 0c-48,0 -93.89,9.5 -135.89,26.71 -30.22,12.38 -58.41,28.76 -83.92,48.46 -85.65,66.14 -141.07,169.76 -141.07,285.71l0 360.88 0.18 0 166.64 -166.64 -0.17 0 0 -194.24c0,-106.5 87.73,-194.24 194.23,-194.24l30.22 0c106.5,0 194.23,87.74 194.23,194.24l0 194.24 -0.17 0 166.64 166.64 0.18 0z"/>
   <path class="fil3" d="M727.91 554.95c18.33,0 33.31,14.99 33.31,33.31l0 129.2c31.26,10.53 60.94,24.59 88.54,41.7l0 -170.9c0,-67.01 -54.83,-121.84 -121.85,-121.84l-235.36 0c-67.02,0 -121.85,54.83 -121.85,121.84l0 170.9c27.61,-17.1 57.28,-31.17 88.54,-41.7l0 -129.2c0,-18.32 14.99,-33.31 33.31,-33.31l235.36 0z"/>
   <polygon class="fil3" points="610.24,1317.55 443.58,1484.19 376.4,1551.37 844.06,1551.37 776.88,1484.19 "/>
   <path class="fil3" d="M534.34 314.47l151.8 0c94.27,0 182.28,-28.2 256.01,-76.57 -74.77,-53.62 -163.77,-82.47 -256.02,-82.47l-151.8 0c-92.24,0 -181.24,28.85 -256.01,82.47 73.73,48.37 161.74,76.57 256.02,76.57z"/>
  </g>
 </g>
</svg>
