<?xml version="1.0" encoding="UTF-8"?>
<!DOCTYPE svg PUBLIC "-//W3C//DTD SVG 1.1//EN" "http://www.w3.org/Graphics/SVG/1.1/DTD/svg11.dtd">
<!-- Creator: CorelDRAW -->
<svg xmlns="http://www.w3.org/2000/svg" xml:space="preserve" width="51.3167mm" height="68.7994mm" version="1.1" style="shape-rendering:geometricPrecision; text-rendering:geometricPrecision; image-rendering:optimizeQuality; fill-rule:evenodd; clip-rule:evenodd"
viewBox="0 0 682.29 914.73"
 xmlns:xlink="http://www.w3.org/1999/xlink"
 xmlns:xodm="http://www.corel.com/coreldraw/odm/2003">
 <defs>
  <style type="text/css">
   <![CDATA[
    .fil0 {fill:#056D50}
   ]]>
  </style>
 </defs>
 <g id="Слой_x0020_1">
  <metadata id="CorelCorpID_0Corel-Layer"/>
  <path class="fil0" d="M302.02 0l78.25 0c166.23,0 302.02,135.79 302.02,302.02l0 310.69c0,166.23 -135.79,302.02 -302.02,302.02l-78.25 0c-166.23,0 -302.02,-135.79 -302.02,-302.02l0 -310.69c0,-166.23 135.79,-302.02 302.02,-302.02zm0 60.29l78.25 0c53.98,0 103.98,17.93 144.33,48.14 59.03,44.18 97.4,114.63 97.4,193.6l0 310.69c0,132.95 -108.78,241.73 -241.73,241.73l-78.25 0c-132.95,0 -241.73,-108.78 -241.73,-241.73l0 -310.69c0,-78.97 38.38,-149.41 97.4,-193.6 40.35,-30.2 90.35,-48.14 144.33,-48.14zm-275.43 241.73l0 310.69c0,151.55 123.88,275.43 275.43,275.43l78.25 0c151.55,0 275.43,-123.88 275.43,-275.43l0 -310.69c0,-151.55 -123.88,-275.43 -275.43,-275.43l-78.25 0c-151.55,0 -275.43,123.88 -275.43,275.43zm508.36 457.49l0 -186.02c0,-59.77 -28.56,-113.18 -72.71,-147.27 -13.15,-10.16 -27.68,-18.6 -43.26,-24.98 -21.65,-8.87 -45.3,-13.77 -70.05,-13.77l-15.58 0c-24.74,0 -48.4,4.9 -70.05,13.77 -15.57,6.38 -30.11,14.82 -43.26,24.98 -44.15,34.09 -72.71,87.51 -72.71,147.27l0 186.02 0.09 0 85.9 -85.9 -0.09 0 0 -100.12c0,-54.89 45.22,-100.12 100.12,-100.12l15.58 0c54.89,0 100.12,45.22 100.12,100.12l0 100.12 -0.09 0 85.9 85.9 0.09 0zm-133.14 -478.98c9.45,0 17.17,7.73 17.17,17.17l0 66.6c16.11,5.43 31.41,12.68 45.63,21.5l0 -88.09c0,-34.54 -28.26,-62.81 -62.81,-62.81l-121.32 0c-34.54,0 -62.81,28.26 -62.81,62.81l0 88.09c14.23,-8.82 29.52,-16.07 45.64,-21.5l0 -66.6c0,-9.45 7.73,-17.17 17.17,-17.17l121.32 0zm-60.66 393.08l-85.9 85.9 -34.63 34.63 241.06 0 -34.63 -34.63 -85.9 -85.9zm-39.12 -517.05l78.25 0c48.59,0 93.95,-14.54 131.96,-39.47 -38.54,-27.64 -84.42,-42.51 -131.97,-42.51l-78.25 0c-47.55,0 -93.42,14.87 -131.96,42.51 38.01,24.93 83.37,39.47 131.97,39.47z"/>
 </g>
</svg>
