<?xml version="1.0" encoding="UTF-8"?>
<!DOCTYPE svg PUBLIC "-//W3C//DTD SVG 1.1//EN" "http://www.w3.org/Graphics/SVG/1.1/DTD/svg11.dtd">
<!-- Creator: CorelDRAW -->
<svg xmlns="http://www.w3.org/2000/svg" xml:space="preserve" width="51.3167mm" height="68.7994mm" version="1.1" style="shape-rendering:geometricPrecision; text-rendering:geometricPrecision; image-rendering:optimizeQuality; fill-rule:evenodd; clip-rule:evenodd"
viewBox="0 0 1510.5 2025.11"
 xmlns:xlink="http://www.w3.org/1999/xlink"
 xmlns:xodm="http://www.corel.com/coreldraw/odm/2003">
 <defs>
  <style type="text/css">
   <![CDATA[
    .fil0 {fill:#FEFEFE}
   ]]>
  </style>
 </defs>
 <g id="Слой_x0020_1">
  <metadata id="CorelCorpID_0Corel-Layer"/>
  <path class="fil0" d="M668.64 0l173.23 0c368.01,0 668.64,300.62 668.64,668.64l0 687.84c0,368.01 -300.62,668.64 -668.64,668.64l-173.23 0c-368.01,0 -668.64,-300.62 -668.64,-668.64l0 -687.84c0,-368.01 300.62,-668.64 668.64,-668.64zm0 133.47l173.23 0c119.51,0 230.2,39.7 319.53,106.57 130.68,97.82 215.64,253.77 215.64,428.6l0 687.84c0,294.34 -240.82,535.17 -535.17,535.17l-173.23 0c-294.35,0 -535.17,-240.83 -535.17,-535.17l0 -687.84c0,-174.83 84.96,-330.78 215.64,-428.6 89.33,-66.87 200.02,-106.57 319.53,-106.57zm-609.77 535.17l0 687.84c0,335.52 274.25,609.77 609.77,609.77l173.23 0c335.52,0 609.77,-274.25 609.77,-609.77l0 -687.84c0,-335.52 -274.25,-609.77 -609.77,-609.77l-173.23 0c-335.52,0 -609.77,274.25 -609.77,609.77zm1125.45 1012.83l0 -411.82c0,-132.31 -63.24,-250.57 -160.98,-326.05 -29.11,-22.48 -61.29,-41.17 -95.77,-55.3 -47.92,-19.64 -100.3,-30.48 -155.08,-30.48l-34.48 0c-54.78,0 -107.15,10.84 -155.07,30.48 -34.48,14.13 -66.66,32.81 -95.77,55.3 -97.74,75.48 -160.98,193.73 -160.98,326.05l0 411.82 0.2 0 190.18 -190.17 -0.2 0 0 -221.65c0,-121.53 100.12,-221.65 221.65,-221.65l34.48 0c121.53,0 221.65,100.12 221.65,221.65l0 221.65 -0.2 0 190.18 190.17 0.2 0zm-294.77 -1060.42c20.91,0 38.02,17.1 38.02,38.02l0 147.44c35.67,12.02 69.53,28.07 101.03,47.59l0 -195.03c0,-76.48 -62.57,-139.05 -139.05,-139.05l-268.6 0c-76.47,0 -139.05,62.57 -139.05,139.05l0 195.03c31.5,-19.52 65.36,-35.57 101.03,-47.59l0 -147.44c0,-20.91 17.11,-38.02 38.02,-38.02l268.6 0zm-134.3 870.24l-190.18 190.17 -76.66 76.66 533.67 0 -76.66 -76.66 -190.17 -190.17zm-86.61 -1144.69l173.24 0c107.58,0 208,-32.18 292.15,-87.38 -85.33,-61.19 -186.89,-94.11 -292.16,-94.11l-173.23 0c-105.27,0 -206.82,32.92 -292.15,94.11 84.14,55.2 184.57,87.38 292.16,87.38z"/>
 </g>
</svg>
